<svg xmlns="http://www.w3.org/2000/svg" viewBox="0 0 512 512"><path d="M440 256h-16a8 8 0 0 0-8 8v200a16 16 0 0 1-16 16H48a16 16 0 0 1-16-16V112a16 16 0 0 1 16-16h200a8 8 0 0 0 8-8V72a8 8 0 0 0-8-8H48a48 48 0 0 0-48 48v352a48 48 0 0 0 48 48h352a48 48 0 0 0 48-48V264a8 8 0 0 0-8-8zM480 0h-.06l-96.16.17c-28.45 0-42.66 34.54-22.58 54.62l35.28 35.28-265 265a12 12 0 0 0 0 17l8.49 8.49a12 12 0 0 0 17 0l265-265 35.28 35.27c20 20 54.57 6 54.62-22.57l.13-96.21A32 32 0 0 0 480 0zm-.17 128.17l-96-96L480 32z"/></svg>