<svg viewBox="0 0 512 512" xmlns="http://www.w3.org/2000/svg"><path d="m400 320h32a16 16 0 0 1 16 16v128a48 48 0 0 1 -48 48h-352a48 48 0 0 1 -48-48v-352a48 48 0 0 1 48-48h160a16 16 0 0 1 16 16v32a16 16 0 0 1 -16 16h-144v320h320v-112a16 16 0 0 1 16-16z" opacity=".4"/><path d="m484 224h-17.88a28 28 0 0 1 -28-28v-.78l1.88-67.22-247.09 248.91a24 24 0 0 1 -33.91.09l-.06-.06-23.94-23.85a24 24 0 0 1 0-33.94l.06-.06 248.94-247.09-67.21 1.9a28 28 0 0 1 -28.79-27.22v-18.68a28 28 0 0 1 28-28h158.67a37.33 37.33 0 0 1 37.33 37.33v158.67a28 28 0 0 1 -28 28z"/></svg>