<svg viewBox="0 0 448 512" xmlns="http://www.w3.org/2000/svg"><path d="m400 32h-352a48 48 0 0 0 -48 48v352a48 48 0 0 0 48 48h352a48 48 0 0 0 48-48v-352a48 48 0 0 0 -48-48zm-16 200c0 21.45-25.94 32-41 17l-32-32-195.48 195.48a12 12 0 0 1 -17 0l-31-31a12 12 0 0 1 0-17l195.48-195.48-32-32c-15.11-15.11-4.34-41 17-41h112a24 24 0 0 1 24 24z" opacity=".4"/><path d="m384 232c0 21.44-25.94 32-41 17l-32-32-195.48 195.48a12 12 0 0 1 -17 0l-31-31a12 12 0 0 1 0-17l195.48-195.48-32-32c-15.11-15.11-4.34-41 17-41h112a24 24 0 0 1 24 24z"/></svg>